<svg xmlns="http://www.w3.org/2000/svg" width="38.297" height="21.688" viewBox="0 0 38.297 21.688">
  <g id="Grupo_1527" data-name="Grupo 1527" transform="translate(-106.098 -202.773)">
    <path id="Trazado_1" data-name="Trazado 1" d="M188.952,231.611s.271-.041.333-.055.17-.082.17-.1.008-.191.008-.191l.186-.2.255-.246.487-.061.6-.143.6.061.286.1s.425.048.565.061a1.757,1.757,0,0,1,.518.2c.1.061.441.2.511.232a2.62,2.62,0,0,0,.4.075,1.617,1.617,0,0,1,.263,0,2.319,2.319,0,0,1,.356.218l.472.382.395.232.534.061.364.15s.008.143.008.184.015.157.015.157l.495.1.433.164.023.191s-.116.075-.224.137a1.107,1.107,0,0,0-.247.191c-.077.075-.247.014-.433,0s-.418-.041-.619-.075a3.582,3.582,0,0,0-.48-.062.8.8,0,0,0-.278.1l-.278.123-.263-.13a.374.374,0,0,1,.062-.184c.062-.1.093-.068.093-.068l.247-.184.085-.061-.085-.245-.077-.027-.681.007-.317-.082-.062-.218-.016-.225-.2-.034-.425-.068-.24-.212a2.352,2.352,0,0,1-.155-.177,5.118,5.118,0,0,0-.5-.143l-.263.089a4.9,4.9,0,0,1-.627-.034.153.153,0,0,1-.131-.164s-.008-.212-.062-.232a.772.772,0,0,0-.248.027l-.263.13s-.232.089-.278.1-.217,0-.217,0l-.24.055-.054.143s-.116.136-.162.15-.163.041-.263.075a.586.586,0,0,1-.255,0l-.162-.075C188.852,231.754,188.952,231.611,188.952,231.611Z" transform="translate(-59.629 -19.825)" fill="#27181f" stroke="#fff" stroke-width="0.18"/>
    <path id="Trazado_2" data-name="Trazado 2" d="M207.256,245.116a2.383,2.383,0,0,1,.294.116,2.008,2.008,0,0,0,.217.219,1.559,1.559,0,0,0,.317.034.82.82,0,0,0,.294-.061,1.837,1.837,0,0,1,.364-.075l.387.089.147-.048s.2-.164.255-.219-.031-.239-.031-.239l-.286-.007-.4.15-.317.007-.41-.164-.309-.021a.481.481,0,0,0-.2.041,1.63,1.63,0,0,1-.186.1Z" transform="translate(-72.866 -30.028)" fill="#27181f" stroke="#fff" stroke-width="0.18"/>
    <path id="Trazado_3" data-name="Trazado 3" d="M217.791,241.893l.395.157s.526.048.6.048.2-.034.387-.034.642.061.642.061l.047.15a1.939,1.939,0,0,0,.17.2.463.463,0,0,0,.34-.021,2.528,2.528,0,0,0,.34-.2l.193-.164h.379a1.357,1.357,0,0,0,.325-.136.616.616,0,0,1,.294-.041,1.429,1.429,0,0,1,.441.137.253.253,0,0,0,.124-.082c.008-.021.023-.061.046-.13a.575.575,0,0,0-.186-.375,3.1,3.1,0,0,0-.395-.123c-.139-.034-.255.027-.186-.089s.124-.177.155-.225-.039-.239-.039-.239-.224-.021-.379-.027-.433-.055-.433-.055l-.634-.157a.535.535,0,0,0-.263-.027,4.749,4.749,0,0,0-.611.2l-.209-.041-.224-.1-.371-.055-.286.116s-.124.1-.116.2.039.171,0,.2a1.184,1.184,0,0,1-.247.089.172.172,0,0,0-.023.136c.023.068-.023.1.116.171a1.064,1.064,0,0,0,.333.1l.194-.041a.841.841,0,0,1,.395-.082,2.111,2.111,0,0,1,.263.075c.193.061.24-.082.263.089s-.023.2-.023.2l-.178.034a.907.907,0,0,1-.247.034h-.34l-.155-.007-.224-.021s-.023-.007-.147-.061a1.29,1.29,0,0,0-.217-.075h-.209a.462.462,0,0,0-.07.082Z" transform="translate(-80.461 -26.893)" fill="#27181f" stroke="#fff" stroke-width="0.18"/>
    <path id="Trazado_4" data-name="Trazado 4" d="M238.621,245.485l.134.087.309.023.34-.032.237-.109-.036-.15a1.284,1.284,0,0,0-.175-.05h-.294l-.181-.068s-.232,0-.294.013a1.214,1.214,0,0,0-.217.087Z" transform="translate(-95.353 -30.233)" fill="#27181f" stroke="#fff" stroke-width="0.18"/>
    <path id="Trazado_5" data-name="Trazado 5" d="M124.367,220.007l0,.018Z" transform="translate(-13.104 -12.247)" fill="#27181f" stroke="#fff" stroke-width="0.18"/>
    <path id="Trazado_6" data-name="Trazado 6" d="M124.362,219.951c0-.005,0,0,0,0Z" transform="translate(-13.1 -12.205)" fill="#27181f" stroke="#fff" stroke-width="0.18"/>
    <path id="Trazado_7" data-name="Trazado 7" d="M124.364,219.976v0Z" transform="translate(-13.101 -12.216)" fill="#27181f" stroke="#fff" stroke-width="0.18"/>
    <path id="Trazado_8" data-name="Trazado 8" d="M202.9,202.863h0Z" transform="translate(-69.726)" fill="#27181f" stroke="#fff" stroke-width="0.18"/>
    <path id="Trazado_9" data-name="Trazado 9" d="M124.373,220.07v0Z" transform="translate(-13.108 -12.292)" fill="#27181f" stroke="#fff" stroke-width="0.18"/>
    <path id="Trazado_10" data-name="Trazado 10" d="M124.382,220.165v0Z" transform="translate(-13.114 -12.351)" fill="#27181f" stroke="#fff" stroke-width="0.18"/>
    <path id="Trazado_11" data-name="Trazado 11" d="M176.274,244.255l.072.164.1,1.346.155.047a1.008,1.008,0,0,1,.149-.147c.139-.109.248-.2.248-.2l.031-.5-.062-.832.062-.382a.387.387,0,0,1,.027-.081l-.811.595Z" transform="translate(-50.509 -29.144)" fill="#27181f" stroke="#fff" stroke-width="0.18"/>
    <path id="Trazado_12" data-name="Trazado 12" d="M127.3,212.925a.865.865,0,0,0,.263-.191l-.031-.491a.523.523,0,0,0-.356-.15c-.217,0-.8.068-.8.068l-.4.246-.665.109s-.155.041-.155.109a.787.787,0,0,0,0,.191,1.368,1.368,0,0,1,.031.191l-.217.628v.3l-.108.232-.217.1-.155.055.046.3-.015.164a1.182,1.182,0,0,1-.309.123c-.232.068-.464.109-.464.109l-.031-.123-.108-.164-.325-.013-.217.068-.8.164a.376.376,0,0,1-.263.027,2.074,2.074,0,0,1-.232-.082l-.124-.041-.495-.15-.495-.3a.694.694,0,0,1-.2-.232c-.108-.177-.294-.341-.294-.532s.139-.15,0-.328a1.348,1.348,0,0,0-.387-.314l-.186-.109a1.317,1.317,0,0,1,.186-.328.548.548,0,0,0,.124-.191l-.031-.245-.109-.328-.17-.382a2.683,2.683,0,0,1-.17-.641c.031-.1.155-.328.155-.368a3.659,3.659,0,0,0-.186-.4l-.062-.382.062-.341.2.1s.2.1.247.055a.8.8,0,0,0,.108-.15s.139-.164.139-.246a.61.61,0,0,0-.026-.14l-.025-.01-.392-.328-.6-.236-.309-.71-1.052-1.747-.289-.382-.7-.091-.351.109-.268.309-.289.2-.268.036-.392-.127-.247-.418-.351-.619-.949-.946-1.011.018-.289.255-1.9-.091-2.558-.855-.062-.164h-1.554c0,.035,0,.073,0,.123v.491l.093.6s.078.873.232,1,.449.273.48.314.48.328.557.491a4.213,4.213,0,0,1,.186.382,3.78,3.78,0,0,1-.016.45s.077.014-.077,0-.325-.041-.325-.041l-.371.013s-.17.014-.093.137a.888.888,0,0,0,.247.286,4.164,4.164,0,0,1,.34.259s.247.218.34.218.278-.014.278-.014.015-.136.186-.041a2.136,2.136,0,0,1,.263.191c.124.082.278.164.34.218a.438.438,0,0,1,.186.286c.016.15.031.423.031.423s-.139-.068-.139.314-.031.4.294.6a6.494,6.494,0,0,1,.928.941c.093.1.17.328.309.259a1.683,1.683,0,0,0,.356-.328s-.247-.382-.278-.423-.526-.423-.526-.423a.14.14,0,0,1-.139-.15v-.314s-.031-.137-.062-.246-.108-.328-.108-.328-.016-.191-.031-.464a1.854,1.854,0,0,0-.124-.532l-.4-.232a.82.82,0,0,1-.232-.382c-.124-.314-.2-.355-.217-.478a1.1,1.1,0,0,0-.062-.436,3.654,3.654,0,0,0-.309-.4c-.2-.259-.309-.423-.449-.6s-.263-.027-.263-.368-.015-.314,0-.546a2.761,2.761,0,0,1,.2-.655.731.731,0,0,0,.232.2,1.448,1.448,0,0,0,.449.055.273.273,0,0,1,.232.2,2.874,2.874,0,0,1,.047.328s-.248-.232-.016.218.387.764.387.764a3.427,3.427,0,0,0,.433.941,4.6,4.6,0,0,1,.449.368c.232.2.495.177.294.286s-.17.027-.2.109a.426.426,0,0,0,.155.341,3.573,3.573,0,0,0,.387.123c.17.055.108-.014.17.055s-.062.15.186.218l.247.068c.016.164.077.109-.015.219s-.278.245-.309.3a1.152,1.152,0,0,0-.016.314.565.565,0,0,0,.278.041c.17-.013.464-.041.542.055a3.346,3.346,0,0,1,.325.423,1.552,1.552,0,0,0,.186.45c.077.1.278.218.294.259s.186.409.232.478a5.313,5.313,0,0,0,.356.532,6.03,6.03,0,0,1,.65.559,1.155,1.155,0,0,1,0,.519,2.74,2.74,0,0,1-.232.518,3.343,3.343,0,0,0-.248.327s.062.4.062.436a.7.7,0,0,0,.124.341c.077.068.866.7.866.7s.356,0,.418.082.263.355.263.355l.542.246.418.068.681.355a7.114,7.114,0,0,1,.851.314c0,.041-.108.232.511.464a9.3,9.3,0,0,1,1.269.5c.077.082-.247.218.34.232s.727.123,1.021.055.433-.041.6-.177a1.18,1.18,0,0,1,.418-.232c.077-.013,1.021.246,1.021.246l.619.573s.035.109.081.237l.069-.009.124-.245.351-.409.134-.173a4.8,4.8,0,0,0,.557-.037,1.483,1.483,0,0,0,.289-.173l-.021-.173-.2-.255-.32-.237-.093-.064-.2-.136-.01-.109s.01-.055.134-.073.145-.064.145-.064l-.01-.164.062-.155.536-.018h.768l.811-.595c.017-.037.044-.069.082-.056.077.027.2.055.2.055l.247-.027.139-.218.124-.45-.247-.2s-.077.041-.031-.055a.516.516,0,0,1,.139-.164,1.128,1.128,0,0,0,.016-.314C127.2,213.075,127.1,213.034,127.3,212.925Z" transform="translate(0 -0.17)" fill="#27181f" stroke="#fff" stroke-width="0.18"/>
    <path id="Trazado_13" data-name="Trazado 13" d="M170.234,248.9v-.291l.3-.082-.021-.191.031-.245.454-.2.453-.52-.045-.04-.309.15-.4.068-.17-.137a1.056,1.056,0,0,1,.083-.112l-.155-.047-.1-1.346-.072-.164h-.794l-.536.018-.062.155.01.164s-.021.045-.145.064-.134.073-.134.073l.01.109.2.136.093.064.32.237.2.255.021.173a1.484,1.484,0,0,1-.289.173,4.806,4.806,0,0,1-.557.037l-.134.173-.351.409-.124.245-.069.009a2.466,2.466,0,0,0,.151.364,1.139,1.139,0,0,0,.418.478c.309.218.541.327.65.3a.786.786,0,0,1,.418-.055l.04.011.125-.152Z" transform="translate(-44.51 -30.631)" fill="#27181f" stroke="#fff" stroke-width="0.18"/>
    <path id="Trazado_14" data-name="Trazado 14" d="M175.989,256.956l-.2-.146-.247.027-.113.055-.237-.137-.02-.155-.609.011v.043l-.506.282-.125.152a3.333,3.333,0,0,1,.455.207l.232.232.8.082s.139-.041.34-.1a.906.906,0,0,1,.189-.028l-.018-.277Z" transform="translate(-48.842 -38.388)" fill="#27181f" stroke="#fff" stroke-width="0.18"/>
    <path id="Trazado_15" data-name="Trazado 15" d="M178.227,253.85l.072-.3.01-.218.2-.118.578-.027.268-.063a1.063,1.063,0,0,0,.217-.082l.237-.227.217-.255.578-.109.444-.368-.042-.114-.325-.082-.186-.2-.371-.218-.418-.027-.356.014-.34-.15-.278.1-.5.014h-.742l-.079-.069-.453.52-.454.2-.031.245.021.191-.3.082v.248l.609-.011.02.155.237.137.113-.055.247-.027.2.146-.052.255.018.277c.153-.008.3.017.307.055s.052.16.08.259l.049-.009Z" transform="translate(-50.471 -34.601)" fill="#27181f" stroke="#fff" stroke-width="0.18"/>
    <path id="Trazado_16" data-name="Trazado 16" d="M183.96,257.683a.41.41,0,0,0,.255.123,1.3,1.3,0,0,0,.309-.027.558.558,0,0,0,.147-.15l.271-.007.352.147c-.008-.076-.012-.133-.012-.133l.232-.259a.337.337,0,0,0,0-.327,5.669,5.669,0,0,0-.371-.573l.108-.055a.674.674,0,0,0,.278-.014c.062-.041.077.014.108-.068a1.086,1.086,0,0,0,.016-.3l-.124-.246-.139-.286a.32.32,0,0,1,.093-.368,1.609,1.609,0,0,0,.294-.246l.016-.423-.159-.432-.444.368-.578.109-.217.255-.237.227a1.064,1.064,0,0,1-.217.082l-.268.063-.578.027-.2.118-.01.218-.072.3-.206.155-.049.009a.649.649,0,0,1,.028.123c0,.055.077.478.077.478l.278.3s.186.232.371.5a2.269,2.269,0,0,1,.2.365l.134-.071A1.633,1.633,0,0,1,183.96,257.683Z" transform="translate(-55.062 -36.557)" fill="#27181f" stroke="#fff" stroke-width="0.18"/>
    <path id="Trazado_17" data-name="Trazado 17" d="M188.414,268.767l.062-.307-.039-.2-.069-.287.116-.055.327-.045c-.08-.093-.149-.142-.211-.214a4.018,4.018,0,0,0-.541-.328c-.2-.136-.294-.177-.34-.327a1.622,1.622,0,0,1-.05-.276l-.352-.147-.271.007a.559.559,0,0,1-.147.15,1.3,1.3,0,0,1-.309.027.41.41,0,0,1-.255-.123,1.633,1.633,0,0,0-.309-.014l-.134.071c.053.122.08.209.08.209l-.062.245s-.139.082.031.246a3.147,3.147,0,0,0,.4.314l.232-.014s.124-.2.17-.218a1.29,1.29,0,0,1,.279.041s.093.218.108.273.217.2.217.2l.278.232.031.423.093.137s.124-.027.155-.082.062-.1.093-.055a.733.733,0,0,1,.139.2c.015.068-.17.219.062.219h.2l.028-.116Z" transform="translate(-57.435 -45.52)" fill="#27181f" stroke="#fff" stroke-width="0.18"/>
    <path id="Trazado_18" data-name="Trazado 18" d="M198.978,272.954l.054-.177a.2.2,0,0,1,.178-.048,1.751,1.751,0,0,0,.232.041s.008-.068.015-.137a1.512,1.512,0,0,0,.008-.177,1.449,1.449,0,0,0-.016-.15l-.054-.212.065-.117c-.059-.066-.136-.143-.219-.224a5.339,5.339,0,0,1-.371-.423.557.557,0,0,0-.263-.136l-.557-.027-.325.014-.17.109s-.263.1-.526.2a1.668,1.668,0,0,1-.526.177h-.526l-.48-.027s.077-.123-.062-.355a1.272,1.272,0,0,0-.129-.181l-.327.045-.116.055.069.287.039.2-.062.307.015.2-.028.116h.384c.155,0,.742.1.742.1a.159.159,0,0,0,.093.123,1.022,1.022,0,0,0,.325.068l.155.273s.34.218.418.177.124-.082.124-.164a.516.516,0,0,0-.047-.286c-.062-.123-.2-.219-.108-.287a.447.447,0,0,1,.232-.109c.124-.027.2-.041.217-.082a1,1,0,0,0,0-.218s-.077-.068.047-.137a1.69,1.69,0,0,1,.433-.15c.093-.013.309.137.387.164a.46.46,0,0,1,.217.15c.046.068.124.123.139.191a.647.647,0,0,1-.016.2s-.062.232.016.3a2.068,2.068,0,0,1,.209.486l.054-.008Z" transform="translate(-63.93 -48.752)" fill="#27181f" stroke="#fff" stroke-width="0.18"/>
  </g>
</svg>
